<?xml version="1.0" encoding="UTF-8" standalone="no"?>
<!-- Created with Inkscape (http://www.inkscape.org/) -->

<svg
   width="300"
   height="300"
   viewBox="0 0 79.374998 79.375"
   version="1.1"
   id="svg182"
   xml:space="preserve"
   sodipodi:docname="logo.svg"
   inkscape:version="1.2.1 (9c6d41e410, 2022-07-14)"
   xmlns:inkscape="http://www.inkscape.org/namespaces/inkscape"
   xmlns:sodipodi="http://sodipodi.sourceforge.net/DTD/sodipodi-0.dtd"
   xmlns="http://www.w3.org/2000/svg"
   xmlns:svg="http://www.w3.org/2000/svg"><sodipodi:namedview
     id="namedview184"
     pagecolor="#ffffff"
     bordercolor="#000000"
     borderopacity="0.25"
     inkscape:showpageshadow="2"
     inkscape:pageopacity="0.0"
     inkscape:pagecheckerboard="0"
     inkscape:deskcolor="#d1d1d1"
     inkscape:document-units="mm"
     showgrid="false"
     inkscape:zoom="2.587745"
     inkscape:cx="216.21142"
     inkscape:cy="117.86324"
     inkscape:window-width="2560"
     inkscape:window-height="1369"
     inkscape:window-x="1072"
     inkscape:window-y="340"
     inkscape:window-maximized="1"
     inkscape:current-layer="svg182" /><defs
     id="defs179" /><g
     inkscape:label="Layer 1"
     inkscape:groupmode="layer"
     id="layer1"><text
       xml:space="preserve"
       style="font-size:3.175px;fill:#000000;stroke-width:0.264583"
       x="24.845472"
       y="52.144821"
       id="text365"><tspan
         sodipodi:role="line"
         id="tspan363"
         style="stroke-width:0.264583"
         x="24.845472"
         y="52.144821" /></text><text
       xml:space="preserve"
       style="font-size:3.175px;fill:#ffffff;stroke-width:0.264583"
       x="25.458942"
       y="54.803188"
       id="text525"><tspan
         sodipodi:role="line"
         id="tspan523"
         style="stroke-width:0.264583"></tspan></text></g><g
     inkscape:groupmode="layer"
     id="layer2"
     inkscape:label="Layer 2"><path
       style="fill:#000000;stroke-width:0.264583"
       d="M 0.25561187,66.868066 1.7509413,59.046342 1.2141564,58.57346 2.0704561,58.241165 4.5498914,47.505466 4.1281318,47.032584 5.6618028,45.818427 6.0835624,44.348659 5.5084358,43.747973 6.4158579,43.0706 7.1187904,40.02882 6.9015204,39.696524 7.1571323,37.958363 7.8089426,36.705865 8.6908036,33.076176 9.1636854,31.261333 8.486314,31.197428 8.051774,30.980157 7.8600651,30.839571 7.6172337,30.877914 7.3104996,30.954599 7.1954741,30.788451 v -0.370639 l 0.3578566,-0.204489 0.2556119,0.140587 0.4345402,-0.02556 h 0.4728819 l 0.3706373,0.0639 H 9.3553943 L 9.5343227,29.472048 9.1253438,29.07585 9.1381228,28.8458 8.6268991,28.87136 c 0,0 0,-0.293952 -0.051122,-0.268391 -0.051122,0.02556 -0.447321,0.242832 -0.447321,0.242832 L 7.98787,28.705214 7.6172326,28.500726 7.2465956,28.245114 7.3616208,27.912819 7.8345026,27.823359 8.5118741,27.63165 8.6268995,27.797798 9.5982246,25.625097 9.3553932,25.26724 9.087001,25.06275 8.8569503,24.8327 l -0.063903,-0.166148 -0.038342,-0.357857 0.3834177,-0.08946 0.3450762,0.319515 0.3834178,0.178928 0.166148,0.07668 0.281173,0.115025 2.747827,-0.766835 0.524005,-1.111912 0.43454,-0.115025 0.766836,-0.779617 1.290839,0.281174 0.677372,-3.757495 c 0,0 -0.115025,-0.115025 -0.115025,-0.178928 0,-0.0639 0,-0.370638 0,-0.370638 l 0.242831,-0.01278 0.447321,-2.313287 -0.01278,-0.357857 0.268393,-0.460101 0.08946,-0.242832 -0.242831,-0.268392 -0.306734,-0.07668 -0.115026,-0.102244 -0.255612,-0.01278 h -0.204489 l -0.127806,-0.102244 -0.0639,-0.102245 0.281173,-0.255612 0.255612,0.0639 h 0.421759 l 0.42176,0.01278 0.383418,-0.817958 0.01278,-0.421759 0.255612,-1.49533 0.42176,-0.805177 0.396198,-0.5495657 0.306734,-0.051122 0.02556,-0.1661477 L 18.659666,8.9336384 18.838594,8.4863177 19.797138,8.9719802 20.154995,7.2082585 19.976067,7.1060137 20.27002,6.7737182 20.142215,6.6203512 20.461729,6.3775198 20.346704,6.211372 20.69178,6.0068827 20.563974,5.8023931 l 0.293954,-0.089464 0.204489,-0.4217596 0.127806,0.562346 0.230051,-0.012779 -0.166148,0.2428312 0.21727,0.2044895 -0.178928,0.1661478 0.242831,0.2939536 -0.140586,0.2044896 -0.01278,0.1150252 0.191709,0.1022448 -0.05112,0.1278059 h -0.127807 l -0.0639,0.012779 -0.03834,0.5751267 4.332621,-1.2780595 0.242831,-1.3675235 -0.191709,-0.2428312 0.21727,-0.1405866 0.242832,-0.4217596 -0.07668,-0.2044893 0.178928,0.076683 -0.03834,-0.3706371 0.204489,0.1022446 0.0639,-0.2556119 0.07668,-0.153367 0.08946,0.2428314 0.166148,0.1150252 -0.08946,0.1661477 0.153366,0.127806 -0.08946,0.21727 0.140586,0.1405866 -0.07668,0.1917089 0.115025,0.1917088 -0.115025,0.2556119 0.115025,0.7284939 -0.19171,0.025561 -0.05112,0.6134685 4.601012,1.763722 0.01278,-0.664591 -0.2045,-0.1150245 0.408977,-0.3067344 -0.191709,-0.2044896 0.306734,-0.2044893 -0.115025,-0.1150255 0.293954,-0.2556118 -0.166147,-0.1917089 0.319513,-0.1150252 0.03834,-0.1917089 -0.08946,-0.051122 c 0,0 0.153366,-0.2556118 0.204489,-0.2044896 0.05112,0.051123 0.293954,0.3578567 0.293954,0.3578567 l -0.178929,0.012782 v 0.1789282 l 0.319516,0.1278061 -0.230053,0.1022446 0.217271,0.1917088 -0.127805,0.1789285 -0.01278,0.21727 0.268393,0.025561 -0.191709,0.2172703 0.255611,0.3834177 -0.191709,0.012782 -0.115025,1.6486966 0.306734,-0.1405867 0.127807,-0.1917088 0.153366,-0.025561 0.102246,0.1150252 0.03834,0.2300507 -0.07668,0.1661477 -0.140586,0.089464 -0.07668,0.2428314 -0.08947,0.2172706 0.792398,1.763722 0.08946,-0.498444 0.166147,0.102245 -0.02556,-0.306734 -0.127805,-0.166148 0.268391,0.05112 0.02556,-0.293954 -0.01278,-0.140587 0.102243,0.07668 0.0639,-0.396199 0.166148,0.42176 0.204488,0.03834 -0.166147,0.191709 c 0,0 0.255611,0 0.191709,0.08946 -0.0639,0.08946 -0.140586,0.178928 -0.140586,0.178928 l 0.204488,0.178928 -0.102243,0.166148 0.191709,0.281173 -0.17893,0.115026 -0.02556,2.645582 1.08635,0.01278 0.17893,0.345076 -0.511226,0.02556 -0.153365,0.140587 -0.434542,-0.07668 -0.0639,0.319515 -0.115025,0.115025 0.127805,0.166148 -0.05112,0.115025 -0.0639,0.140587 0.153368,0.127806 -0.01278,0.690152 -0.07668,0.08946 -0.140587,2.108798 c 0,0 0.217271,-0.05112 0.204491,0.01278 -0.01278,0.0639 0,0.613469 0,0.613469 h -0.23005 l -0.153368,5.214482 0.306734,0.03834 -0.0639,0.741274 -0.255611,-0.07668 -0.306737,7.540549 2.364412,4.128132 0.357857,-0.02556 -0.01278,-0.562346 0.191709,0.02556 -0.02556,-0.370639 -0.191709,0.02556 c 0,0 0.306734,-0.485661 0.332295,-0.434541 0.02556,0.05112 0.421759,0.268393 0.421759,0.268393 l -0.178927,0.255611 0.115025,0.268394 0.05112,0.319516 0.332295,-0.07668 0.07668,0.345075 3.374076,-0.996887 -0.242832,-0.23005 -0.217268,-0.268393 c 0,0 -0.242832,-0.434539 -0.127807,-0.626248 0.115025,-0.191709 0.370636,-0.268393 0.498443,-0.21727 0.127807,0.05112 0.306734,0.102245 0.306734,0.102245 l 0.05112,-1.623136 -0.268393,-0.281173 -0.03834,-0.345075 -0.07668,-0.293955 -0.03834,-0.575127 0.255611,-0.281173 -0.01278,-0.357857 -0.166148,-0.05112 -0.115025,-0.766834 -0.217268,-0.01278 -0.07668,-0.319513 0.191709,-0.370639 0.357857,-0.664591 v -0.281173 l 0.153366,-0.21727 0.0639,-0.05112 -0.08946,-0.984107 -0.536784,0.217271 0.511223,-0.255611 -0.02556,-0.447321 0.115025,0.485661 0.460103,-0.127804 -0.460103,0.178927 0.115028,0.996887 0.08946,0.255611 0.01278,0.140586 0.140586,-0.05112 0.664591,-0.396197 0.472882,0.345077 0.166148,0.370637 -0.03834,0.242832 -0.23005,0.166147 0.434538,0.191709 0.460103,-0.03834 0.472882,0.191709 c 0,0 0.485661,0.575128 0.178927,1.840405 -0.306734,1.26528 -0.4601,1.48255 -0.4601,1.48255 l -0.153368,0.01278 v 0.230053 l -0.02556,0.600686 0.153368,0.217271 0.02556,0.268393 -0.153368,0.255611 0.230052,0.242832 0.140587,0.370637 0.08946,0.166147 11.285265,-1.431427 0.03834,-0.217268 0.332295,-0.05112 -0.03834,-0.677373 -0.306736,-0.166148 0.408979,-0.191709 -0.05112,-0.49844 -0.319514,-0.03834 0.268393,-0.281173 -0.511225,-3.757493 0.242832,-0.575127 0.741275,-0.460103 0.63903,-0.07668 0.69015,0.204488 0.408979,0.715714 0.485664,2.262164 0.306734,1.840407 0.23005,0.0639 -0.23005,0.40898 0.166148,0.472882 0.4601,-0.03834 -0.217268,0.370639 0.140586,0.472882 h 0.306734 l -0.293954,0.421759 0.255611,1.341961 7.292483,-1.503651 -0.560311,-2.187011 -0.451861,0.253042 -0.05422,-1.373661 -0.506087,-2.638875 -0.397637,-0.325342 0.234968,-0.289192 V 27.43709 l 0.542234,-0.09037 -0.506087,-0.343416 -0.05422,-0.234966 0.578384,-0.361489 -0.162671,-0.686831 -0.289192,-0.03615 -0.162669,-0.488011 0.03615,-0.253043 0.379566,-0.126521 -0.01807,-0.325341 -0.379564,-0.16267 -0.180744,-0.343416 0.09037,-0.632607 c 0,0 0.03615,-0.09037 0.180744,-0.108447 0.144598,-0.01807 -0.307266,-0.253043 -0.307266,-0.253043 l -0.09037,-0.289191 0.307266,-0.19882 -0.162671,-0.415713 0.144598,-0.578384 0.379563,-0.180744 0.32534,0.234968 0.0723,0.488011 v 0.415713 l 0.45186,-0.126521 0.180745,0.253043 -0.0723,0.271117 -0.144595,0.162671 0.253042,0.216893 c 0,0 0.03615,0.09037 0,0.162671 -0.03615,0.0723 -0.126521,0.253043 -0.126521,0.253043 l 0.36149,-0.0723 0.234968,0.216895 -0.216895,0.415713 -0.09037,0.180745 0.271116,0.361489 -0.03615,0.180745 0.596458,0.03615 -0.01807,0.216894 -0.180745,0.325341 -0.144595,0.144596 0.253042,0.506086 0.650682,0.03615 0.09037,0.271116 -0.253042,0.198819 -0.126521,0.361489 0.614532,-0.198818 0.09037,0.307266 0.307266,0.253042 -0.144595,0.198818 0.126521,0.216895 -0.216895,0.325343 0.307266,0.777203 0.325342,0.198818 0.162669,0.343416 -0.36149,0.271116 0.596458,1.915895 h -0.144595 l 0.632609,2.295462 0.271115,0.0723 0.198819,0.271119 0.271118,0.0723 -0.144594,0.307266 0.144594,0.524161 0.433787,0.126521 -0.234968,0.271116 0.343416,0.939874 0.379563,-0.108448 -0.180745,0.36149 0.36149,0.849503 0.415713,-0.03615 0.234969,0.307266 -0.379563,0.0723 0.05422,0.39764 0.234969,0.307266 -0.01807,0.05422 h 0.433787 l 0.126521,0.234968 -0.325342,0.03615 -0.108445,0.216892 0.325339,0.650682 0.578385,0.198819 -0.216895,0.162671 c 0,0 -0.289192,-0.01807 -0.271116,0.05422 0.01807,0.0723 1.301361,4.374025 1.301361,4.374025 l 4.211357,15.309093 5.613773,21.517911 -87.2147682,-3.476323 z"
       id="path253" /><rect
       style="fill:#000000;stroke-width:0.264583"
       id="rect309"
       width="50.391674"
       height="9.6879263"
       x="-8.7480526"
       y="76.70813" /></g><g
     inkscape:groupmode="layer"
     id="layer4"
     inkscape:label="Layer 3" /></svg>
